<svg xmlns="http://www.w3.org/2000/svg" xmlns:xlink="http://www.w3.org/1999/xlink" width="500" zoomAndPan="magnify" viewBox="0 0 375 374.999991" height="500" preserveAspectRatio="xMidYMid meet" version="1.2"><defs><clipPath id="15545e3842"><path d="M 119.308594 140 L 188 140 L 188 200 L 119.308594 200 Z M 119.308594 140 "/></clipPath><clipPath id="f8d43cfb47"><path d="M 187 108.519531 L 255.808594 108.519531 L 255.808594 169 L 187 169 Z M 187 108.519531 "/></clipPath></defs><g id="52af2aac6f"><rect x="0" width="375" y="0" height="374.999991" style="fill:#ffffff;fill-opacity:1;stroke:none;"/><rect x="0" width="375" y="0" height="374.999991" style="fill:#2e073f;fill-opacity:1;stroke:none;"/><g clip-rule="nonzero" clip-path="url(#15545e3842)"><path style=" stroke:none;fill-rule:nonzero;fill:#ebd3f8;fill-opacity:1;" d="M 165.125 182.492188 L 165.125 190.777344 L 127.617188 173.351562 L 127.617188 166.628906 L 165.125 149.203125 L 165.125 157.488281 L 136.761719 169.910156 L 136.761719 170.066406 Z M 187.402344 140 L 124.675781 140 C 121.714844 140 119.3125 142.402344 119.3125 145.363281 L 119.3125 194.617188 C 119.3125 197.578125 121.714844 199.980469 124.675781 199.980469 L 169.988281 199.980469 L 187.402344 140 "/></g><g clip-rule="nonzero" clip-path="url(#f8d43cfb47)"><path style=" stroke:none;fill-rule:nonzero;fill:#ad49e1;fill-opacity:1;" d="M 247.082031 142.132812 L 209.578125 159.324219 L 209.578125 151.039062 L 238.566406 138.613281 L 238.566406 138.457031 L 209.578125 126.035156 L 209.578125 117.75 L 247.082031 134.941406 Z M 204.816406 108.546875 L 187.402344 168.527344 L 250.023438 168.527344 C 252.988281 168.527344 255.386719 166.125 255.386719 163.164062 L 255.386719 113.910156 C 255.386719 110.949219 252.988281 108.546875 250.023438 108.546875 L 204.816406 108.546875 "/></g><g style="fill:#ffffff;fill-opacity:1;"><g transform="translate(125.882373, 236.784858)"><path style="stroke:none" d="M 14.90625 0 L 13.609375 -3.953125 L 5.78125 -3.953125 L 4.484375 0 L -0.453125 0 L 7.109375 -21 L 12.28125 -21 L 19.84375 0 Z M 7 -7.8125 L 12.390625 -7.8125 L 9.6875 -16.140625 Z M 7 -7.8125 "/></g></g><g style="fill:#ffffff;fill-opacity:1;"><g transform="translate(146.501684, 236.784858)"><path style="stroke:none" d="M 17.15625 -21 L 21.734375 -21 L 21.734375 0 L 16.96875 0 L 6.6875 -13.9375 L 6.6875 0 L 2.0625 0 L 2.0625 -21 L 6.828125 -21 L 17.15625 -7.109375 Z M 17.15625 -21 "/></g></g><g style="fill:#ffffff;fill-opacity:1;"><g transform="translate(171.565376, 236.784858)"><path style="stroke:none" d="M 14.171875 -21 L 14.171875 -5.390625 C 14.171875 -3.660156 13.59375 -2.28125 12.4375 -1.25 C 11.28125 -0.226562 9.628906 0.28125 7.484375 0.28125 C 5.578125 0.28125 4.0625 -0.125 2.9375 -0.9375 C 1.820312 -1.757812 1.144531 -2.882812 0.90625 -4.3125 L 5.453125 -5.640625 C 5.546875 -5.097656 5.78125 -4.648438 6.15625 -4.296875 C 6.53125 -3.953125 6.972656 -3.78125 7.484375 -3.78125 C 8.066406 -3.78125 8.554688 -3.988281 8.953125 -4.40625 C 9.359375 -4.832031 9.5625 -5.359375 9.5625 -5.984375 L 9.5625 -16.90625 L 2.65625 -16.90625 L 2.65625 -21 Z M 14.171875 -21 "/></g></g><g style="fill:#ffffff;fill-opacity:1;"><g transform="translate(188.720161, 236.784858)"><path style="stroke:none" d="M 6.6875 -4.09375 L 13.65625 -4.09375 L 13.65625 0 L 2.0625 0 L 2.0625 -21 L 6.6875 -21 Z M 6.6875 -4.09375 "/></g></g><g style="fill:#ffffff;fill-opacity:1;"><g transform="translate(203.670252, 236.784858)"><path style="stroke:none" d="M 14.875 -16.9375 L 6.859375 -16.9375 L 6.859375 -12.53125 L 13.71875 -12.53125 L 13.71875 -8.46875 L 6.859375 -8.46875 L 6.859375 -4.0625 L 14.875 -4.0625 L 14.875 0 L 2.234375 0 L 2.234375 -21 L 14.875 -21 Z M 14.875 -16.9375 "/></g></g><g style="fill:#ffffff;fill-opacity:1;"><g transform="translate(221.209992, 236.784858)"><path style="stroke:none" d="M 14.875 -16.9375 L 6.859375 -16.9375 L 6.859375 -12.53125 L 13.71875 -12.53125 L 13.71875 -8.46875 L 6.859375 -8.46875 L 6.859375 -4.0625 L 14.875 -4.0625 L 14.875 0 L 2.234375 0 L 2.234375 -21 L 14.875 -21 Z M 14.875 -16.9375 "/></g></g><g style="fill:#ffffff;fill-opacity:1;"><g transform="translate(238.749732, 236.784858)"><path style="stroke:none" d="M 5.140625 -9.34375 C 4.492188 -9.34375 3.921875 -9.585938 3.421875 -10.078125 C 2.929688 -10.566406 2.6875 -11.148438 2.6875 -11.828125 C 2.6875 -12.503906 2.929688 -13.082031 3.421875 -13.5625 C 3.921875 -14.039062 4.492188 -14.28125 5.140625 -14.28125 C 5.816406 -14.28125 6.394531 -14.039062 6.875 -13.5625 C 7.351562 -13.082031 7.59375 -12.503906 7.59375 -11.828125 C 7.59375 -11.148438 7.351562 -10.566406 6.875 -10.078125 C 6.394531 -9.585938 5.816406 -9.34375 5.140625 -9.34375 Z M 3.46875 4.96875 L 0.734375 4.96875 L 4.0625 -3.671875 L 8.359375 -3.671875 Z M 3.46875 4.96875 "/></g></g><g style="fill:#ffffff;fill-opacity:1;"><g transform="translate(127.915142, 252.301805)"><path style="stroke:none" d="M 1.953125 0.0625 C 1.566406 0.0625 1.21875 -0.03125 0.90625 -0.21875 C 0.601562 -0.414062 0.382812 -0.675781 0.25 -1 L 0.765625 -1.296875 C 0.859375 -1.054688 1.003906 -0.859375 1.203125 -0.703125 C 1.410156 -0.554688 1.664062 -0.484375 1.96875 -0.484375 C 2.257812 -0.484375 2.503906 -0.554688 2.703125 -0.703125 C 2.910156 -0.859375 3.015625 -1.078125 3.015625 -1.359375 C 3.015625 -1.578125 2.953125 -1.753906 2.828125 -1.890625 C 2.710938 -2.023438 2.554688 -2.140625 2.359375 -2.234375 C 2.160156 -2.328125 1.953125 -2.414062 1.734375 -2.5 C 1.523438 -2.59375 1.320312 -2.695312 1.125 -2.8125 C 0.925781 -2.925781 0.765625 -3.070312 0.640625 -3.25 C 0.523438 -3.425781 0.46875 -3.65625 0.46875 -3.9375 C 0.46875 -4.21875 0.53125 -4.460938 0.65625 -4.671875 C 0.789062 -4.878906 0.96875 -5.035156 1.1875 -5.140625 C 1.40625 -5.253906 1.648438 -5.3125 1.921875 -5.3125 C 2.222656 -5.3125 2.492188 -5.25 2.734375 -5.125 C 2.984375 -5 3.179688 -4.84375 3.328125 -4.65625 L 2.890625 -4.296875 C 2.671875 -4.609375 2.351562 -4.765625 1.9375 -4.765625 C 1.695312 -4.765625 1.484375 -4.695312 1.296875 -4.5625 C 1.117188 -4.4375 1.03125 -4.242188 1.03125 -3.984375 C 1.03125 -3.773438 1.085938 -3.601562 1.203125 -3.46875 C 1.328125 -3.34375 1.488281 -3.234375 1.6875 -3.140625 C 1.882812 -3.054688 2.085938 -2.96875 2.296875 -2.875 C 2.515625 -2.789062 2.722656 -2.6875 2.921875 -2.5625 C 3.117188 -2.445312 3.273438 -2.296875 3.390625 -2.109375 C 3.515625 -1.921875 3.578125 -1.675781 3.578125 -1.375 C 3.578125 -1.070312 3.503906 -0.8125 3.359375 -0.59375 C 3.210938 -0.375 3.015625 -0.207031 2.765625 -0.09375 C 2.523438 0.0078125 2.253906 0.0625 1.953125 0.0625 Z M 1.953125 0.0625 "/></g></g><g style="fill:#ffffff;fill-opacity:1;"><g transform="translate(134.092976, 252.301805)"><path style="stroke:none" d="M 3.125 0.0625 C 2.75 0.0625 2.398438 -0.00390625 2.078125 -0.140625 C 1.753906 -0.273438 1.46875 -0.46875 1.21875 -0.71875 C 0.96875 -0.96875 0.769531 -1.253906 0.625 -1.578125 C 0.488281 -1.898438 0.421875 -2.25 0.421875 -2.625 C 0.421875 -3 0.488281 -3.347656 0.625 -3.671875 C 0.769531 -3.992188 0.96875 -4.28125 1.21875 -4.53125 C 1.46875 -4.78125 1.753906 -4.972656 2.078125 -5.109375 C 2.398438 -5.242188 2.75 -5.3125 3.125 -5.3125 C 3.5 -5.3125 3.847656 -5.242188 4.171875 -5.109375 C 4.492188 -4.972656 4.78125 -4.78125 5.03125 -4.53125 C 5.28125 -4.28125 5.472656 -3.992188 5.609375 -3.671875 C 5.742188 -3.347656 5.8125 -3 5.8125 -2.625 C 5.8125 -2.25 5.742188 -1.898438 5.609375 -1.578125 C 5.472656 -1.253906 5.28125 -0.96875 5.03125 -0.71875 C 4.78125 -0.46875 4.492188 -0.273438 4.171875 -0.140625 C 3.847656 -0.00390625 3.5 0.0625 3.125 0.0625 Z M 3.125 -0.484375 C 3.519531 -0.484375 3.878906 -0.578125 4.203125 -0.765625 C 4.523438 -0.960938 4.78125 -1.222656 4.96875 -1.546875 C 5.164062 -1.867188 5.265625 -2.226562 5.265625 -2.625 C 5.265625 -3.019531 5.164062 -3.378906 4.96875 -3.703125 C 4.78125 -4.023438 4.523438 -4.28125 4.203125 -4.46875 C 3.878906 -4.664062 3.519531 -4.765625 3.125 -4.765625 C 2.726562 -4.765625 2.367188 -4.664062 2.046875 -4.46875 C 1.722656 -4.28125 1.460938 -4.023438 1.265625 -3.703125 C 1.078125 -3.378906 0.984375 -3.019531 0.984375 -2.625 C 0.984375 -2.226562 1.078125 -1.867188 1.265625 -1.546875 C 1.460938 -1.222656 1.722656 -0.960938 2.046875 -0.765625 C 2.367188 -0.578125 2.726562 -0.484375 3.125 -0.484375 Z M 3.125 -0.484375 "/></g></g><g style="fill:#ffffff;fill-opacity:1;"><g transform="translate(142.694698, 252.301805)"><path style="stroke:none" d="M 3.546875 -4.703125 L 1.25 -4.703125 L 1.25 -2.890625 L 3.25 -2.890625 L 3.25 -2.359375 L 1.25 -2.359375 L 1.25 0 L 0.6875 0 L 0.6875 -5.25 L 3.546875 -5.25 Z M 3.546875 -4.703125 "/></g></g><g style="fill:#ffffff;fill-opacity:1;"><g transform="translate(148.750022, 252.301805)"><path style="stroke:none" d="M 3.546875 -5.25 L 3.546875 -4.6875 L 2.09375 -4.6875 L 2.09375 0 L 1.53125 0 L 1.53125 -4.6875 L 0.078125 -4.6875 L 0.078125 -5.25 Z M 3.546875 -5.25 "/></g></g><g style="fill:#ffffff;fill-opacity:1;"><g transform="translate(154.717836, 252.301805)"><path style="stroke:none" d="M 6.546875 -5.25 L 7.125 -5.25 L 5.5 0 L 4.90625 0 L 3.53125 -4.65625 L 2.1875 0 L 1.59375 0 L -0.046875 -5.25 L 0.546875 -5.25 L 1.875 -0.9375 L 3.140625 -5.25 L 3.921875 -5.25 L 5.203125 -0.9375 Z M 6.546875 -5.25 "/></g></g><g style="fill:#ffffff;fill-opacity:1;"><g transform="translate(164.142102, 252.301805)"><path style="stroke:none" d="M 3.8125 0 L 3.375 -1.21875 L 1.046875 -1.21875 L 0.609375 0 L 0 0 L 1.90625 -5.25 L 2.515625 -5.25 L 4.421875 0 Z M 1.21875 -1.765625 L 3.1875 -1.765625 L 2.21875 -4.578125 Z M 1.21875 -1.765625 "/></g></g><g style="fill:#ffffff;fill-opacity:1;"><g transform="translate(170.906218, 252.301805)"><path style="stroke:none" d="M 2.765625 -2.390625 L 4.3125 0 L 3.671875 0 L 2.1875 -2.375 L 1.203125 -2.375 L 1.203125 0 L 0.640625 0 L 0.640625 -5.25 L 2.515625 -5.25 C 2.785156 -5.25 3.03125 -5.179688 3.25 -5.046875 C 3.476562 -4.921875 3.65625 -4.742188 3.78125 -4.515625 C 3.914062 -4.296875 3.984375 -4.050781 3.984375 -3.78125 C 3.984375 -3.550781 3.925781 -3.332031 3.8125 -3.125 C 3.707031 -2.925781 3.5625 -2.765625 3.375 -2.640625 C 3.195312 -2.515625 2.992188 -2.429688 2.765625 -2.390625 Z M 1.203125 -2.90625 L 2.484375 -2.90625 C 2.753906 -2.90625 2.976562 -2.984375 3.15625 -3.140625 C 3.332031 -3.304688 3.421875 -3.523438 3.421875 -3.796875 C 3.421875 -4.054688 3.328125 -4.269531 3.140625 -4.4375 C 2.960938 -4.601562 2.742188 -4.6875 2.484375 -4.6875 L 1.203125 -4.6875 Z M 1.203125 -2.90625 "/></g></g><g style="fill:#ffffff;fill-opacity:1;"><g transform="translate(177.644083, 252.301805)"><path style="stroke:none" d="M 3.546875 -4.703125 L 1.25 -4.703125 L 1.25 -2.890625 L 3.25 -2.890625 L 3.25 -2.359375 L 1.25 -2.359375 L 1.25 -0.546875 L 3.546875 -0.546875 L 3.546875 0 L 0.6875 0 L 0.6875 -5.25 L 3.546875 -5.25 Z M 3.546875 -4.703125 "/></g></g><g style="fill:#ffffff;fill-opacity:1;"><g transform="translate(184.066929, 252.301805)"><path style="stroke:none" d=""/></g></g><g style="fill:#ffffff;fill-opacity:1;"><g transform="translate(188.520907, 252.301805)"><path style="stroke:none" d="M 0.640625 0 L 0.640625 -5.25 L 2.078125 -5.25 C 2.429688 -5.25 2.765625 -5.179688 3.078125 -5.046875 C 3.398438 -4.910156 3.679688 -4.722656 3.921875 -4.484375 C 4.160156 -4.242188 4.347656 -3.960938 4.484375 -3.640625 C 4.628906 -3.328125 4.703125 -2.988281 4.703125 -2.625 C 4.703125 -2.257812 4.628906 -1.914062 4.484375 -1.59375 C 4.347656 -1.28125 4.160156 -1.003906 3.921875 -0.765625 C 3.679688 -0.523438 3.398438 -0.335938 3.078125 -0.203125 C 2.765625 -0.0664062 2.429688 0 2.078125 0 Z M 1.1875 -0.5625 L 2.0625 -0.5625 C 2.457031 -0.5625 2.8125 -0.648438 3.125 -0.828125 C 3.4375 -1.015625 3.679688 -1.257812 3.859375 -1.5625 C 4.046875 -1.875 4.140625 -2.226562 4.140625 -2.625 C 4.140625 -3.019531 4.046875 -3.367188 3.859375 -3.671875 C 3.679688 -3.984375 3.4375 -4.226562 3.125 -4.40625 C 2.8125 -4.59375 2.457031 -4.6875 2.0625 -4.6875 L 1.1875 -4.6875 Z M 1.1875 -0.5625 "/></g></g><g style="fill:#ffffff;fill-opacity:1;"><g transform="translate(195.993807, 252.301805)"><path style="stroke:none" d="M 3.546875 -4.703125 L 1.25 -4.703125 L 1.25 -2.890625 L 3.25 -2.890625 L 3.25 -2.359375 L 1.25 -2.359375 L 1.25 -0.546875 L 3.546875 -0.546875 L 3.546875 0 L 0.6875 0 L 0.6875 -5.25 L 3.546875 -5.25 Z M 3.546875 -4.703125 "/></g></g><g style="fill:#ffffff;fill-opacity:1;"><g transform="translate(202.416652, 252.301805)"><path style="stroke:none" d="M 3.8125 -5.25 L 4.421875 -5.25 L 2.515625 0 L 1.90625 0 L 0 -5.25 L 0.625 -5.25 L 2.21875 -0.71875 Z M 3.8125 -5.25 "/></g></g><g style="fill:#ffffff;fill-opacity:1;"><g transform="translate(209.180768, 252.301805)"><path style="stroke:none" d="M 3.546875 -4.703125 L 1.25 -4.703125 L 1.25 -2.890625 L 3.25 -2.890625 L 3.25 -2.359375 L 1.25 -2.359375 L 1.25 -0.546875 L 3.546875 -0.546875 L 3.546875 0 L 0.6875 0 L 0.6875 -5.25 L 3.546875 -5.25 Z M 3.546875 -4.703125 "/></g></g><g style="fill:#ffffff;fill-opacity:1;"><g transform="translate(215.603613, 252.301805)"><path style="stroke:none" d="M 1.203125 -0.5625 L 3.15625 -0.5625 L 3.15625 0 L 0.640625 0 L 0.640625 -5.25 L 1.203125 -5.25 Z M 1.203125 -0.5625 "/></g></g><g style="fill:#ffffff;fill-opacity:1;"><g transform="translate(221.177655, 252.301805)"><path style="stroke:none" d="M 3.125 0.0625 C 2.75 0.0625 2.398438 -0.00390625 2.078125 -0.140625 C 1.753906 -0.273438 1.46875 -0.46875 1.21875 -0.71875 C 0.96875 -0.96875 0.769531 -1.253906 0.625 -1.578125 C 0.488281 -1.898438 0.421875 -2.25 0.421875 -2.625 C 0.421875 -3 0.488281 -3.347656 0.625 -3.671875 C 0.769531 -3.992188 0.96875 -4.28125 1.21875 -4.53125 C 1.46875 -4.78125 1.753906 -4.972656 2.078125 -5.109375 C 2.398438 -5.242188 2.75 -5.3125 3.125 -5.3125 C 3.5 -5.3125 3.847656 -5.242188 4.171875 -5.109375 C 4.492188 -4.972656 4.78125 -4.78125 5.03125 -4.53125 C 5.28125 -4.28125 5.472656 -3.992188 5.609375 -3.671875 C 5.742188 -3.347656 5.8125 -3 5.8125 -2.625 C 5.8125 -2.25 5.742188 -1.898438 5.609375 -1.578125 C 5.472656 -1.253906 5.28125 -0.96875 5.03125 -0.71875 C 4.78125 -0.46875 4.492188 -0.273438 4.171875 -0.140625 C 3.847656 -0.00390625 3.5 0.0625 3.125 0.0625 Z M 3.125 -0.484375 C 3.519531 -0.484375 3.878906 -0.578125 4.203125 -0.765625 C 4.523438 -0.960938 4.78125 -1.222656 4.96875 -1.546875 C 5.164062 -1.867188 5.265625 -2.226562 5.265625 -2.625 C 5.265625 -3.019531 5.164062 -3.378906 4.96875 -3.703125 C 4.78125 -4.023438 4.523438 -4.28125 4.203125 -4.46875 C 3.878906 -4.664062 3.519531 -4.765625 3.125 -4.765625 C 2.726562 -4.765625 2.367188 -4.664062 2.046875 -4.46875 C 1.722656 -4.28125 1.460938 -4.023438 1.265625 -3.703125 C 1.078125 -3.378906 0.984375 -3.019531 0.984375 -2.625 C 0.984375 -2.226562 1.078125 -1.867188 1.265625 -1.546875 C 1.460938 -1.222656 1.722656 -0.960938 2.046875 -0.765625 C 2.367188 -0.578125 2.726562 -0.484375 3.125 -0.484375 Z M 3.125 -0.484375 "/></g></g><g style="fill:#ffffff;fill-opacity:1;"><g transform="translate(229.779378, 252.301805)"><path style="stroke:none" d="M 2.515625 -5.25 C 2.796875 -5.25 3.046875 -5.179688 3.265625 -5.046875 C 3.484375 -4.921875 3.65625 -4.742188 3.78125 -4.515625 C 3.914062 -4.296875 3.984375 -4.050781 3.984375 -3.78125 C 3.984375 -3.519531 3.914062 -3.273438 3.78125 -3.046875 C 3.65625 -2.828125 3.484375 -2.65625 3.265625 -2.53125 C 3.046875 -2.40625 2.796875 -2.34375 2.515625 -2.34375 L 1.203125 -2.34375 L 1.203125 0 L 0.640625 0 L 0.640625 -5.25 Z M 2.46875 -2.875 C 2.726562 -2.875 2.953125 -2.953125 3.140625 -3.109375 C 3.328125 -3.265625 3.421875 -3.488281 3.421875 -3.78125 C 3.421875 -4.0625 3.328125 -4.285156 3.140625 -4.453125 C 2.953125 -4.617188 2.726562 -4.703125 2.46875 -4.703125 L 1.203125 -4.703125 L 1.203125 -2.875 Z M 2.46875 -2.875 "/></g></g><g style="fill:#ffffff;fill-opacity:1;"><g transform="translate(236.254723, 252.301805)"><path style="stroke:none" d="M 3.546875 -4.703125 L 1.25 -4.703125 L 1.25 -2.890625 L 3.25 -2.890625 L 3.25 -2.359375 L 1.25 -2.359375 L 1.25 -0.546875 L 3.546875 -0.546875 L 3.546875 0 L 0.6875 0 L 0.6875 -5.25 L 3.546875 -5.25 Z M 3.546875 -4.703125 "/></g></g><g style="fill:#ffffff;fill-opacity:1;"><g transform="translate(242.677568, 252.301805)"><path style="stroke:none" d="M 2.765625 -2.390625 L 4.3125 0 L 3.671875 0 L 2.1875 -2.375 L 1.203125 -2.375 L 1.203125 0 L 0.640625 0 L 0.640625 -5.25 L 2.515625 -5.25 C 2.785156 -5.25 3.03125 -5.179688 3.25 -5.046875 C 3.476562 -4.921875 3.65625 -4.742188 3.78125 -4.515625 C 3.914062 -4.296875 3.984375 -4.050781 3.984375 -3.78125 C 3.984375 -3.550781 3.925781 -3.332031 3.8125 -3.125 C 3.707031 -2.925781 3.5625 -2.765625 3.375 -2.640625 C 3.195312 -2.515625 2.992188 -2.429688 2.765625 -2.390625 Z M 1.203125 -2.90625 L 2.484375 -2.90625 C 2.753906 -2.90625 2.976562 -2.984375 3.15625 -3.140625 C 3.332031 -3.304688 3.421875 -3.523438 3.421875 -3.796875 C 3.421875 -4.054688 3.328125 -4.269531 3.140625 -4.4375 C 2.960938 -4.601562 2.742188 -4.6875 2.484375 -4.6875 L 1.203125 -4.6875 Z M 1.203125 -2.90625 "/></g></g></g></svg>