<svg xmlns="http://www.w3.org/2000/svg" xmlns:xlink="http://www.w3.org/1999/xlink" width="500" zoomAndPan="magnify" viewBox="0 0 375 374.999991" height="500" preserveAspectRatio="xMidYMid meet" version="1.2"><defs><clipPath id="c1915bd564"><path d="M 19.402344 82 L 194 82 L 194 236 L 19.402344 236 Z M 19.402344 82 "/></clipPath><clipPath id="3bc110f51a"><path d="M 193 2.078125 L 367.402344 2.078125 L 367.402344 156 L 193 156 Z M 193 2.078125 "/></clipPath></defs><g id="5b3f91d40f"><rect x="0" width="375" y="0" height="374.999991" style="fill:#ffffff;fill-opacity:1;stroke:none;"/><rect x="0" width="375" y="0" height="374.999991" style="fill:#e9d5ff;fill-opacity:1;stroke:none;"/><g clip-rule="nonzero" clip-path="url(#c1915bd564)"><path style=" stroke:none;fill-rule:nonzero;fill:#3b0764;fill-opacity:1;" d="M 136.566406 191.25 L 136.566406 212.429688 L 40.652344 167.867188 L 40.652344 150.683594 L 136.566406 106.121094 L 136.566406 127.308594 L 64.03125 159.074219 L 64.03125 159.476562 Z M 193.53125 82.585938 L 33.128906 82.585938 C 25.558594 82.585938 19.417969 88.726562 19.417969 96.300781 L 19.417969 222.253906 C 19.417969 229.824219 25.558594 235.964844 33.128906 235.964844 L 149.003906 235.964844 L 193.53125 82.585938 "/></g><g clip-rule="nonzero" clip-path="url(#3bc110f51a)"><path style=" stroke:none;fill-rule:nonzero;fill:#7a1cac;fill-opacity:1;" d="M 346.152344 88.035156 L 250.238281 131.996094 L 250.238281 110.8125 L 324.371094 79.042969 L 324.371094 78.644531 L 250.238281 46.867188 L 250.238281 25.691406 L 346.152344 69.652344 Z M 238.0625 2.15625 L 193.53125 155.53125 L 353.675781 155.53125 C 361.246094 155.53125 367.386719 149.394531 367.386719 141.816406 L 367.386719 15.863281 C 367.386719 8.292969 361.246094 2.15625 353.675781 2.15625 L 238.0625 2.15625 "/></g><g style="fill:#3b0764;fill-opacity:1;"><g transform="translate(8.522794, 311.699965)"><path style="stroke:none" d="M 44.734375 0 L 40.84375 -11.859375 L 17.328125 -11.859375 L 13.4375 0 L -1.359375 0 L 21.3125 -63 L 36.859375 -63 L 59.53125 0 Z M 21 -23.421875 L 37.171875 -23.421875 L 29.078125 -48.40625 Z M 21 -23.421875 "/></g></g><g style="fill:#3b0764;fill-opacity:1;"><g transform="translate(70.388829, 311.699965)"><path style="stroke:none" d="M 51.453125 -63 L 65.203125 -63 L 65.203125 0 L 50.921875 0 L 20.0625 -41.796875 L 20.0625 0 L 6.1875 0 L 6.1875 -63 L 20.46875 -63 L 51.453125 -21.3125 Z M 51.453125 -63 "/></g></g><g style="fill:#3b0764;fill-opacity:1;"><g transform="translate(145.589873, 311.699965)"><path style="stroke:none" d="M 42.53125 -63 L 42.53125 -16.171875 C 42.53125 -10.992188 40.796875 -6.863281 37.328125 -3.78125 C 33.859375 -0.695312 28.90625 0.84375 22.46875 0.84375 C 16.726562 0.84375 12.175781 -0.378906 8.8125 -2.828125 C 5.457031 -5.285156 3.429688 -8.648438 2.734375 -12.921875 L 16.375 -16.90625 C 16.65625 -15.289062 17.351562 -13.957031 18.46875 -12.90625 C 19.59375 -11.863281 20.925781 -11.34375 22.46875 -11.34375 C 24.21875 -11.34375 25.6875 -11.972656 26.875 -13.234375 C 28.070312 -14.492188 28.671875 -16.066406 28.671875 -17.953125 L 28.671875 -50.71875 L 7.984375 -50.71875 L 7.984375 -63 Z M 42.53125 -63 "/></g></g><g style="fill:#3b0764;fill-opacity:1;"><g transform="translate(197.060897, 311.699965)"><path style="stroke:none" d="M 20.0625 -12.28125 L 40.953125 -12.28125 L 40.953125 0 L 6.1875 0 L 6.1875 -63 L 20.0625 -63 Z M 20.0625 -12.28125 "/></g></g><g style="fill:#3b0764;fill-opacity:1;"><g transform="translate(241.916927, 311.699965)"><path style="stroke:none" d="M 44.625 -50.8125 L 20.578125 -50.8125 L 20.578125 -37.59375 L 41.15625 -37.59375 L 41.15625 -25.40625 L 20.578125 -25.40625 L 20.578125 -12.1875 L 44.625 -12.1875 L 44.625 0 L 6.71875 0 L 6.71875 -63 L 44.625 -63 Z M 44.625 -50.8125 "/></g></g><g style="fill:#3b0764;fill-opacity:1;"><g transform="translate(294.542946, 311.699965)"><path style="stroke:none" d="M 44.625 -50.8125 L 20.578125 -50.8125 L 20.578125 -37.59375 L 41.15625 -37.59375 L 41.15625 -25.40625 L 20.578125 -25.40625 L 20.578125 -12.1875 L 44.625 -12.1875 L 44.625 0 L 6.71875 0 L 6.71875 -63 L 44.625 -63 Z M 44.625 -50.8125 "/></g></g><g style="fill:#3b0764;fill-opacity:1;"><g transform="translate(347.168965, 311.699965)"><path style="stroke:none" d="M 15.4375 -28.03125 C 13.476562 -28.03125 11.757812 -28.765625 10.28125 -30.234375 C 8.8125 -31.703125 8.078125 -33.453125 8.078125 -35.484375 C 8.078125 -37.515625 8.8125 -39.25 10.28125 -40.6875 C 11.757812 -42.125 13.476562 -42.84375 15.4375 -42.84375 C 17.46875 -42.84375 19.195312 -42.125 20.625 -40.6875 C 22.0625 -39.25 22.78125 -37.515625 22.78125 -35.484375 C 22.78125 -33.453125 22.0625 -31.703125 20.625 -30.234375 C 19.195312 -28.765625 17.46875 -28.03125 15.4375 -28.03125 Z M 10.390625 14.90625 L 2.203125 14.90625 L 12.1875 -11.03125 L 25.09375 -11.03125 Z M 10.390625 14.90625 "/></g></g><g style="fill:#3b0764;fill-opacity:1;"><g transform="translate(25.805558, 343.124977)"><path style="stroke:none" d="M 5.3125 0.1875 C 4.257812 0.1875 3.316406 -0.078125 2.484375 -0.609375 C 1.648438 -1.140625 1.050781 -1.835938 0.6875 -2.703125 L 2.0625 -3.515625 C 2.320312 -2.867188 2.726562 -2.34375 3.28125 -1.9375 C 3.84375 -1.53125 4.53125 -1.328125 5.34375 -1.328125 C 6.132812 -1.328125 6.804688 -1.53125 7.359375 -1.9375 C 7.910156 -2.351562 8.1875 -2.941406 8.1875 -3.703125 C 8.1875 -4.285156 8.019531 -4.765625 7.6875 -5.140625 C 7.363281 -5.515625 6.9375 -5.828125 6.40625 -6.078125 C 5.875 -6.328125 5.3125 -6.566406 4.71875 -6.796875 C 4.132812 -7.035156 3.578125 -7.3125 3.046875 -7.625 C 2.515625 -7.9375 2.082031 -8.332031 1.75 -8.8125 C 1.425781 -9.300781 1.265625 -9.925781 1.265625 -10.6875 C 1.265625 -11.457031 1.441406 -12.125 1.796875 -12.6875 C 2.148438 -13.25 2.625 -13.679688 3.21875 -13.984375 C 3.820312 -14.285156 4.488281 -14.4375 5.21875 -14.4375 C 6.039062 -14.4375 6.78125 -14.265625 7.4375 -13.921875 C 8.101562 -13.585938 8.632812 -13.164062 9.03125 -12.65625 L 7.84375 -11.65625 C 7.25 -12.5 6.390625 -12.921875 5.265625 -12.921875 C 4.609375 -12.921875 4.03125 -12.742188 3.53125 -12.390625 C 3.03125 -12.046875 2.78125 -11.519531 2.78125 -10.8125 C 2.78125 -10.238281 2.945312 -9.773438 3.28125 -9.421875 C 3.613281 -9.078125 4.046875 -8.78125 4.578125 -8.53125 C 5.109375 -8.289062 5.664062 -8.054688 6.25 -7.828125 C 6.832031 -7.597656 7.390625 -7.316406 7.921875 -6.984375 C 8.453125 -6.660156 8.882812 -6.242188 9.21875 -5.734375 C 9.550781 -5.222656 9.71875 -4.5625 9.71875 -3.75 C 9.71875 -2.925781 9.519531 -2.21875 9.125 -1.625 C 8.726562 -1.03125 8.195312 -0.578125 7.53125 -0.265625 C 6.863281 0.0351562 6.125 0.1875 5.3125 0.1875 Z M 5.3125 0.1875 "/></g></g><g style="fill:#3b0764;fill-opacity:1;"><g transform="translate(42.570877, 343.124977)"><path style="stroke:none" d="M 8.484375 0.1875 C 7.460938 0.1875 6.515625 0 5.640625 -0.375 C 4.765625 -0.757812 3.988281 -1.285156 3.3125 -1.953125 C 2.632812 -2.628906 2.101562 -3.40625 1.71875 -4.28125 C 1.34375 -5.164062 1.15625 -6.113281 1.15625 -7.125 C 1.15625 -8.132812 1.34375 -9.078125 1.71875 -9.953125 C 2.101562 -10.835938 2.632812 -11.613281 3.3125 -12.28125 C 3.988281 -12.957031 4.765625 -13.484375 5.640625 -13.859375 C 6.515625 -14.242188 7.460938 -14.4375 8.484375 -14.4375 C 9.492188 -14.4375 10.441406 -14.242188 11.328125 -13.859375 C 12.210938 -13.484375 12.988281 -12.957031 13.65625 -12.28125 C 14.320312 -11.613281 14.84375 -10.835938 15.21875 -9.953125 C 15.601562 -9.078125 15.796875 -8.132812 15.796875 -7.125 C 15.796875 -6.113281 15.601562 -5.164062 15.21875 -4.28125 C 14.84375 -3.40625 14.320312 -2.628906 13.65625 -1.953125 C 12.988281 -1.285156 12.210938 -0.757812 11.328125 -0.375 C 10.441406 0 9.492188 0.1875 8.484375 0.1875 Z M 8.484375 -1.328125 C 9.554688 -1.328125 10.53125 -1.582031 11.40625 -2.09375 C 12.289062 -2.613281 12.988281 -3.3125 13.5 -4.1875 C 14.019531 -5.070312 14.28125 -6.050781 14.28125 -7.125 C 14.28125 -8.195312 14.019531 -9.171875 13.5 -10.046875 C 12.988281 -10.929688 12.289062 -11.628906 11.40625 -12.140625 C 10.53125 -12.660156 9.554688 -12.921875 8.484375 -12.921875 C 7.421875 -12.921875 6.445312 -12.660156 5.5625 -12.140625 C 4.6875 -11.628906 3.988281 -10.929688 3.46875 -10.046875 C 2.945312 -9.171875 2.6875 -8.195312 2.6875 -7.125 C 2.6875 -6.050781 2.945312 -5.070312 3.46875 -4.1875 C 3.988281 -3.3125 4.6875 -2.613281 5.5625 -2.09375 C 6.445312 -1.582031 7.421875 -1.328125 8.484375 -1.328125 Z M 8.484375 -1.328125 "/></g></g><g style="fill:#3b0764;fill-opacity:1;"><g transform="translate(65.913584, 343.124977)"><path style="stroke:none" d="M 9.640625 -12.78125 L 3.375 -12.78125 L 3.375 -7.859375 L 8.828125 -7.859375 L 8.828125 -6.390625 L 3.375 -6.390625 L 3.375 0 L 1.859375 0 L 1.859375 -14.25 L 9.640625 -14.25 Z M 9.640625 -12.78125 "/></g></g><g style="fill:#3b0764;fill-opacity:1;"><g transform="translate(82.346474, 343.124977)"><path style="stroke:none" d="M 9.625 -14.25 L 9.625 -12.734375 L 5.671875 -12.734375 L 5.671875 0 L 4.15625 0 L 4.15625 -12.734375 L 0.21875 -12.734375 L 0.21875 -14.25 Z M 9.625 -14.25 "/></g></g><g style="fill:#3b0764;fill-opacity:1;"><g transform="translate(98.541912, 343.124977)"><path style="stroke:none" d="M 17.78125 -14.25 L 19.359375 -14.25 L 14.921875 0 L 13.328125 0 L 9.59375 -12.640625 L 5.9375 0 L 4.328125 0 L -0.140625 -14.25 L 1.46875 -14.25 L 5.109375 -2.5625 L 8.53125 -14.25 L 10.65625 -14.25 L 14.125 -2.546875 Z M 17.78125 -14.25 "/></g></g><g style="fill:#3b0764;fill-opacity:1;"><g transform="translate(124.116651, 343.124977)"><path style="stroke:none" d="M 10.328125 0 L 9.171875 -3.328125 L 2.828125 -3.328125 L 1.65625 0 L 0 0 L 5.15625 -14.25 L 6.84375 -14.25 L 12 0 Z M 3.328125 -4.78125 L 8.671875 -4.78125 L 6.015625 -12.4375 Z M 3.328125 -4.78125 "/></g></g><g style="fill:#3b0764;fill-opacity:1;"><g transform="translate(142.472893, 343.124977)"><path style="stroke:none" d="M 7.5 -6.5 L 11.703125 0 L 9.96875 0 L 5.9375 -6.4375 L 3.25 -6.4375 L 3.25 0 L 1.734375 0 L 1.734375 -14.25 L 6.84375 -14.25 C 7.570312 -14.25 8.234375 -14.070312 8.828125 -13.71875 C 9.429688 -13.363281 9.910156 -12.882812 10.265625 -12.28125 C 10.628906 -11.675781 10.8125 -11.003906 10.8125 -10.265625 C 10.8125 -9.628906 10.660156 -9.039062 10.359375 -8.5 C 10.066406 -7.957031 9.675781 -7.515625 9.1875 -7.171875 C 8.695312 -6.828125 8.132812 -6.601562 7.5 -6.5 Z M 3.25 -7.890625 L 6.75 -7.890625 C 7.476562 -7.890625 8.082031 -8.109375 8.5625 -8.546875 C 9.039062 -8.992188 9.28125 -9.582031 9.28125 -10.3125 C 9.28125 -11.019531 9.035156 -11.597656 8.546875 -12.046875 C 8.054688 -12.503906 7.457031 -12.734375 6.75 -12.734375 L 3.25 -12.734375 Z M 3.25 -7.890625 "/></g></g><g style="fill:#3b0764;fill-opacity:1;"><g transform="translate(160.757896, 343.124977)"><path style="stroke:none" d="M 9.640625 -12.78125 L 3.375 -12.78125 L 3.375 -7.859375 L 8.828125 -7.859375 L 8.828125 -6.390625 L 3.375 -6.390625 L 3.375 -1.46875 L 9.640625 -1.46875 L 9.640625 0 L 1.859375 0 L 1.859375 -14.25 L 9.640625 -14.25 Z M 9.640625 -12.78125 "/></g></g><g style="fill:#3b0764;fill-opacity:1;"><g transform="translate(178.188082, 343.124977)"><path style="stroke:none" d=""/></g></g><g style="fill:#3b0764;fill-opacity:1;"><g transform="translate(190.275629, 343.124977)"><path style="stroke:none" d="M 1.734375 0 L 1.734375 -14.25 L 5.625 -14.25 C 6.601562 -14.25 7.523438 -14.0625 8.390625 -13.6875 C 9.253906 -13.320312 10.007812 -12.8125 10.65625 -12.15625 C 11.3125 -11.507812 11.820312 -10.753906 12.1875 -9.890625 C 12.5625 -9.023438 12.75 -8.101562 12.75 -7.125 C 12.75 -6.144531 12.5625 -5.222656 12.1875 -4.359375 C 11.820312 -3.492188 11.3125 -2.734375 10.65625 -2.078125 C 10.007812 -1.429688 9.253906 -0.921875 8.390625 -0.546875 C 7.523438 -0.179688 6.601562 0 5.625 0 Z M 3.234375 -1.515625 L 5.609375 -1.515625 C 6.671875 -1.515625 7.625 -1.757812 8.46875 -2.25 C 9.3125 -2.75 9.984375 -3.421875 10.484375 -4.265625 C 10.984375 -5.109375 11.234375 -6.0625 11.234375 -7.125 C 11.234375 -8.195312 10.984375 -9.148438 10.484375 -9.984375 C 9.984375 -10.828125 9.3125 -11.492188 8.46875 -11.984375 C 7.625 -12.484375 6.671875 -12.734375 5.609375 -12.734375 L 3.234375 -12.734375 Z M 3.234375 -1.515625 "/></g></g><g style="fill:#3b0764;fill-opacity:1;"><g transform="translate(210.555222, 343.124977)"><path style="stroke:none" d="M 9.640625 -12.78125 L 3.375 -12.78125 L 3.375 -7.859375 L 8.828125 -7.859375 L 8.828125 -6.390625 L 3.375 -6.390625 L 3.375 -1.46875 L 9.640625 -1.46875 L 9.640625 0 L 1.859375 0 L 1.859375 -14.25 L 9.640625 -14.25 Z M 9.640625 -12.78125 "/></g></g><g style="fill:#3b0764;fill-opacity:1;"><g transform="translate(227.985408, 343.124977)"><path style="stroke:none" d="M 10.328125 -14.25 L 12 -14.25 L 6.84375 0 L 5.15625 0 L 0 -14.25 L 1.6875 -14.25 L 6.015625 -1.953125 Z M 10.328125 -14.25 "/></g></g><g style="fill:#3b0764;fill-opacity:1;"><g transform="translate(246.341661, 343.124977)"><path style="stroke:none" d="M 9.640625 -12.78125 L 3.375 -12.78125 L 3.375 -7.859375 L 8.828125 -7.859375 L 8.828125 -6.390625 L 3.375 -6.390625 L 3.375 -1.46875 L 9.640625 -1.46875 L 9.640625 0 L 1.859375 0 L 1.859375 -14.25 L 9.640625 -14.25 Z M 9.640625 -12.78125 "/></g></g><g style="fill:#3b0764;fill-opacity:1;"><g transform="translate(263.771836, 343.124977)"><path style="stroke:none" d="M 3.25 -1.515625 L 8.546875 -1.515625 L 8.546875 0 L 1.734375 0 L 1.734375 -14.25 L 3.25 -14.25 Z M 3.25 -1.515625 "/></g></g><g style="fill:#3b0764;fill-opacity:1;"><g transform="translate(278.89875, 343.124977)"><path style="stroke:none" d="M 8.484375 0.1875 C 7.460938 0.1875 6.515625 0 5.640625 -0.375 C 4.765625 -0.757812 3.988281 -1.285156 3.3125 -1.953125 C 2.632812 -2.628906 2.101562 -3.40625 1.71875 -4.28125 C 1.34375 -5.164062 1.15625 -6.113281 1.15625 -7.125 C 1.15625 -8.132812 1.34375 -9.078125 1.71875 -9.953125 C 2.101562 -10.835938 2.632812 -11.613281 3.3125 -12.28125 C 3.988281 -12.957031 4.765625 -13.484375 5.640625 -13.859375 C 6.515625 -14.242188 7.460938 -14.4375 8.484375 -14.4375 C 9.492188 -14.4375 10.441406 -14.242188 11.328125 -13.859375 C 12.210938 -13.484375 12.988281 -12.957031 13.65625 -12.28125 C 14.320312 -11.613281 14.84375 -10.835938 15.21875 -9.953125 C 15.601562 -9.078125 15.796875 -8.132812 15.796875 -7.125 C 15.796875 -6.113281 15.601562 -5.164062 15.21875 -4.28125 C 14.84375 -3.40625 14.320312 -2.628906 13.65625 -1.953125 C 12.988281 -1.285156 12.210938 -0.757812 11.328125 -0.375 C 10.441406 0 9.492188 0.1875 8.484375 0.1875 Z M 8.484375 -1.328125 C 9.554688 -1.328125 10.53125 -1.582031 11.40625 -2.09375 C 12.289062 -2.613281 12.988281 -3.3125 13.5 -4.1875 C 14.019531 -5.070312 14.28125 -6.050781 14.28125 -7.125 C 14.28125 -8.195312 14.019531 -9.171875 13.5 -10.046875 C 12.988281 -10.929688 12.289062 -11.628906 11.40625 -12.140625 C 10.53125 -12.660156 9.554688 -12.921875 8.484375 -12.921875 C 7.421875 -12.921875 6.445312 -12.660156 5.5625 -12.140625 C 4.6875 -11.628906 3.988281 -10.929688 3.46875 -10.046875 C 2.945312 -9.171875 2.6875 -8.195312 2.6875 -7.125 C 2.6875 -6.050781 2.945312 -5.070312 3.46875 -4.1875 C 3.988281 -3.3125 4.6875 -2.613281 5.5625 -2.09375 C 6.445312 -1.582031 7.421875 -1.328125 8.484375 -1.328125 Z M 8.484375 -1.328125 "/></g></g><g style="fill:#3b0764;fill-opacity:1;"><g transform="translate(302.241468, 343.124977)"><path style="stroke:none" d="M 6.84375 -14.25 C 7.582031 -14.25 8.25 -14.070312 8.84375 -13.71875 C 9.4375 -13.363281 9.910156 -12.882812 10.265625 -12.28125 C 10.628906 -11.675781 10.8125 -11.007812 10.8125 -10.28125 C 10.8125 -9.550781 10.628906 -8.882812 10.265625 -8.28125 C 9.910156 -7.6875 9.4375 -7.210938 8.84375 -6.859375 C 8.25 -6.515625 7.582031 -6.34375 6.84375 -6.34375 L 3.25 -6.34375 L 3.25 0 L 1.734375 0 L 1.734375 -14.25 Z M 6.703125 -7.796875 C 7.410156 -7.796875 8.015625 -8.007812 8.515625 -8.4375 C 9.023438 -8.875 9.28125 -9.484375 9.28125 -10.265625 C 9.28125 -11.023438 9.023438 -11.632812 8.515625 -12.09375 C 8.015625 -12.550781 7.410156 -12.78125 6.703125 -12.78125 L 3.25 -12.78125 L 3.25 -7.796875 Z M 6.703125 -7.796875 "/></g></g><g style="fill:#3b0764;fill-opacity:1;"><g transform="translate(319.814099, 343.124977)"><path style="stroke:none" d="M 9.640625 -12.78125 L 3.375 -12.78125 L 3.375 -7.859375 L 8.828125 -7.859375 L 8.828125 -6.390625 L 3.375 -6.390625 L 3.375 -1.46875 L 9.640625 -1.46875 L 9.640625 0 L 1.859375 0 L 1.859375 -14.25 L 9.640625 -14.25 Z M 9.640625 -12.78125 "/></g></g><g style="fill:#3b0764;fill-opacity:1;"><g transform="translate(337.244297, 343.124977)"><path style="stroke:none" d="M 7.5 -6.5 L 11.703125 0 L 9.96875 0 L 5.9375 -6.4375 L 3.25 -6.4375 L 3.25 0 L 1.734375 0 L 1.734375 -14.25 L 6.84375 -14.25 C 7.570312 -14.25 8.234375 -14.070312 8.828125 -13.71875 C 9.429688 -13.363281 9.910156 -12.882812 10.265625 -12.28125 C 10.628906 -11.675781 10.8125 -11.003906 10.8125 -10.265625 C 10.8125 -9.628906 10.660156 -9.039062 10.359375 -8.5 C 10.066406 -7.957031 9.675781 -7.515625 9.1875 -7.171875 C 8.695312 -6.828125 8.132812 -6.601562 7.5 -6.5 Z M 3.25 -7.890625 L 6.75 -7.890625 C 7.476562 -7.890625 8.082031 -8.109375 8.5625 -8.546875 C 9.039062 -8.992188 9.28125 -9.582031 9.28125 -10.3125 C 9.28125 -11.019531 9.035156 -11.597656 8.546875 -12.046875 C 8.054688 -12.503906 7.457031 -12.734375 6.75 -12.734375 L 3.25 -12.734375 Z M 3.25 -7.890625 "/></g></g></g></svg>